<?xml version="1.0" encoding="iso-8859-1"?>
<!-- Generator: Adobe Illustrator 19.0.0, SVG Export Plug-In . SVG Version: 6.00 Build 0)  -->
<svg version="1.1" id="Layer_1" xmlns="http://www.w3.org/2000/svg" xmlns:xlink="http://www.w3.org/1999/xlink" x="0px" y="0px"
	 viewBox="0 0 504 504" style="enable-background:new 0 0 504 504;" xml:space="preserve">
<path style="fill:#5DD844;" d="M436.8,304c0,141.6-83.2,199.2-184.8,199.2c-102.4,0-184.8-57.6-184.8-199.2S150.4,0,252,0
	C354.4,0.8,436.8,162.4,436.8,304z"/>
<path style="fill:#4DC430;" d="M252,0.8c102.4,0,184.8,162.4,184.8,304S353.6,504,252,504"/>
<path style="fill:#DCEA5C;" d="M395.2,292c0,109.6-64,153.6-143.2,153.6s-143.2-44-143.2-153.6S172.8,57.6,252,57.6
	S395.2,183.2,395.2,292z"/>
<path style="fill:#C8E54E;" d="M252,57.6c79.2,0,143.2,125.6,143.2,234.4s-64,153.6-143.2,153.6"/>
<circle style="fill:#F4F995;" cx="252" cy="308" r="96"/>
<path style="fill:#EAEA86;" d="M252,212c52.8,0,96,43.2,96,96s-43.2,96-96,96"/>
<circle style="fill:#664823;" cx="252" cy="308" r="73.6"/>
<path style="fill:#563818;" d="M252,234.4c40.8,0,73.6,32.8,73.6,73.6s-32.8,73.6-73.6,73.6"/>
<ellipse transform="matrix(-0.7065 -0.7077 0.7077 -0.7065 177.2291 630.6262)" style="fill:#82603F;" cx="219.378" cy="278.564" rx="17.6" ry="27.2"/>
<g>
</g>
<g>
</g>
<g>
</g>
<g>
</g>
<g>
</g>
<g>
</g>
<g>
</g>
<g>
</g>
<g>
</g>
<g>
</g>
<g>
</g>
<g>
</g>
<g>
</g>
<g>
</g>
<g>
</g>
</svg>
